<svg width="567" height="567" viewBox="0 0 567 567" fill="none" xmlns="http://www.w3.org/2000/svg">
<circle cx="62.3768" cy="347.377" r="7.73706" transform="rotate(32.591 62.3768 347.377)" fill="#12FF00" stroke="#12FF00"/>
<circle cx="392.561" cy="72.5611" r="4.97434" transform="rotate(-147.409 392.561 72.5611)" fill="#12FF00" stroke="#12FF00"/>
<circle cx="517.549" cy="358.683" r="4.97434" transform="rotate(32.591 517.549 358.683)" fill="#12FF00" stroke="#12FF00"/>
<circle cx="426.83" cy="93.8954" r="14.6287" transform="rotate(-147.409 426.83 93.8954)" fill="#12FF00" stroke="#12FF00"/>
<circle cx="283.054" cy="283.054" r="163.937" transform="rotate(-147.409 283.054 283.054)" stroke="url(#paint0_linear_2_183)" stroke-width="82"/>
<path d="M171.305 86.6658L169.035 85.2145C164.312 82.1952 165.598 74.9733 171.072 73.7687L297.973 45.8469C303.447 44.6423 307.645 50.6579 304.626 55.3806L303.174 57.6507C300.297 62.1512 299.326 67.6102 300.473 72.827L324.432 181.715C325.737 187.647 328.462 193.173 332.373 197.82L453.567 341.807C494.085 389.945 507.905 446.189 448.536 467.026C421.155 476.637 383.318 487.288 331.227 498.75C278.096 510.44 238.765 516.674 209.685 519.364C148.079 525.063 137.361 468.922 153.655 409.237L203.637 226.146C205.237 220.287 205.39 214.127 204.085 208.195L180.127 99.3068C178.979 94.0901 175.806 89.543 171.305 86.6658Z" fill="#12FF00"/>
<path d="M323.994 483.508C272.579 494.821 236.164 500.432 210.418 502.552C164.006 506.375 155.821 463.926 167.247 418.78C168.823 412.551 170.606 406.295 174.376 401.091C185.208 386.139 217.533 358.318 300.869 380.551C358.612 395.955 391.865 387.329 410.446 375.605C423.223 367.543 444.412 364.392 454.907 375.258C455.83 376.214 456.661 377.255 457.389 378.367C476.529 407.612 480.767 439.01 447.808 450.645C423.29 459.301 384.607 470.171 323.994 483.508Z" fill="#131513"/>
<circle cx="330.548" cy="359.061" r="15.1287" transform="rotate(32.591 330.548 359.061)" fill="#132911"/>
<circle cx="363.173" cy="366.467" r="8.54039" transform="rotate(32.591 363.173 366.467)" fill="#132512"/>
<path d="M189.493 137.599L251.93 123.861" stroke="#132C11" stroke-width="5" stroke-linecap="round"/>
<path d="M196.834 170.962L248.07 159.689" stroke="#132812" stroke-width="5" stroke-linecap="round"/>
<defs>
<linearGradient id="paint0_linear_2_183" x1="283.054" y1="78.1168" x2="283.054" y2="487.99" gradientUnits="userSpaceOnUse">
<stop stop-color="#12FF00"/>
<stop offset="1" stop-color="#12FF00" stop-opacity="0"/>
</linearGradient>
</defs>
</svg>
